<?xml version="1.0" encoding="UTF-8"?>
<svg id="Layer_2" data-name="Layer 2" xmlns="http://www.w3.org/2000/svg" xmlns:xlink="http://www.w3.org/1999/xlink" viewBox="0 0 314.09 314.08">
  <defs>
    <style>
      .cls-1 {
        fill: url(#linear-gradient-2);
      }

      .cls-2 {
        fill: url(#linear-gradient-3);
      }

      .cls-3 {
        fill: url(#linear-gradient);
      }

      .cls-4 {
        fill: url(#linear-gradient-4);
      }
    </style>
    <linearGradient id="linear-gradient" x1="0" y1="157.04" x2="314.09" y2="157.04" gradientUnits="userSpaceOnUse">
      <stop offset="0" stop-color="#4aa2da"/>
      <stop offset="1" stop-color="#3284c6"/>
    </linearGradient>
    <linearGradient id="linear-gradient-2" x1="47.72" y1="157.75" x2="85.49" y2="157.75" xlink:href="#linear-gradient"/>
    <linearGradient id="linear-gradient-3" x1="89.73" x2="260.27" xlink:href="#linear-gradient"/>
    <linearGradient id="linear-gradient-4" x1="111.76" y1="157.43" x2="213.04" y2="157.43" xlink:href="#linear-gradient"/>
  </defs>
  <path class="cls-3" d="m157.04,314.08C70.45,314.08,0,243.64,0,157.04S70.45,0,157.04,0c30.52,0,60.11,8.76,85.58,25.35,5.09,3.31,6.53,10.13,3.22,15.22-3.31,5.09-10.13,6.53-15.22,3.22-21.89-14.25-47.33-21.78-73.57-21.78-74.46,0-135.04,60.58-135.04,135.04s60.58,135.04,135.04,135.04,135.04-60.58,135.04-135.04c0-16.26-2.86-32.15-8.49-47.23-2.12-5.69.77-12.03,6.46-14.15,5.69-2.12,12.03.77,14.15,6.46,6.55,17.55,9.88,36.04,9.88,54.93,0,86.59-70.45,157.04-157.04,157.04Z"/>
  <path class="cls-1" d="m74.49,220.55c-3.57,0-7.07-1.73-9.18-4.93-11.5-17.39-17.59-37.64-17.59-58.57s5.73-39.97,16.56-56.99c3.26-5.13,10.06-6.64,15.19-3.37,5.13,3.26,6.64,10.06,3.37,15.19-8.58,13.48-13.12,29.11-13.12,45.17s4.82,32.66,13.93,46.43c3.35,5.07,1.96,11.89-3.1,15.24-1.87,1.24-3.98,1.83-6.06,1.83Z"/>
  <path class="cls-2" d="m154,263.31c-7.67,0-15.33-.82-22.76-2.44-5.94-1.3-9.7-7.16-8.4-13.09,1.3-5.94,7.16-9.7,13.09-8.4,5.89,1.29,11.97,1.94,18.06,1.94,46.47,0,84.27-37.8,84.27-84.27s-37.8-84.27-84.27-84.27c-16.89,0-33.18,4.97-47.11,14.39-5.03,3.4-11.87,2.08-15.27-2.96s-2.08-11.87,2.96-15.27c17.58-11.88,38.13-18.16,59.43-18.16,58.6,0,106.27,47.67,106.27,106.27s-47.67,106.27-106.27,106.27Z"/>
  <path class="cls-4" d="m162.4,208.07c-27.92,0-50.64-22.72-50.64-50.64s22.72-50.64,50.64-50.64,50.64,22.72,50.64,50.64-22.72,50.64-50.64,50.64Zm0-79.28c-15.79,0-28.64,12.85-28.64,28.64s12.85,28.64,28.64,28.64,28.64-12.85,28.64-28.64-12.85-28.64-28.64-28.64Z"/>
</svg>